<?xml version="1.0" standalone="no"?>
<!DOCTYPE svg PUBLIC "-//W3C//DTD SVG 20010904//EN"
 "http://www.w3.org/TR/2001/REC-SVG-20010904/DTD/svg10.dtd">
<svg version="1.0" xmlns="http://www.w3.org/2000/svg"
 width="980.000000pt" height="500.000000pt" viewBox="100 370 980 500"
 preserveAspectRatio="xMidYMid meet">

<g transform="translate(0.000000,1254.000000) scale(0.100000,-0.100000)"
fill="#b02243" stroke="none">
<path d="M8790 8563 c-8 -3 -36 -21 -61 -39 -46 -33 -47 -34 -91 -20 -58 17
-78 9 -154 -64 -35 -33 -85 -69 -116 -83 -61 -27 -123 -92 -134 -141 -3 -17
-17 -50 -30 -72 -22 -37 -23 -43 -9 -54 14 -11 12 -19 -15 -67 -21 -36 -30
-65 -28 -85 3 -29 10 -34 83 -65 121 -52 240 -84 338 -90 48 -3 87 -10 87 -15
0 -5 14 -27 31 -48 l31 -38 -38 -79 c-21 -43 -39 -80 -40 -81 -2 -2 -22 9 -46
26 -122 83 -353 117 -511 73 -173 -47 -313 -148 -369 -266 -35 -74 -39 -170
-10 -225 51 -97 238 -106 310 -15 47 59 41 123 -20 217 -65 99 -54 148 42 191
52 24 141 27 210 8 61 -17 124 -83 145 -152 18 -63 21 -265 3 -304 -15 -34
-59 -53 -418 -185 -215 -79 -312 -120 -327 -137 -19 -20 -23 -36 -23 -90 0
-254 182 -455 410 -454 100 0 221 49 354 145 l50 35 14 -42 c31 -92 92 -136
187 -137 70 0 114 13 238 72 l107 52 0 39 c0 33 -3 38 -17 32 -40 -15 -116
-26 -138 -21 -14 4 -33 18 -42 33 -16 24 -18 59 -21 280 -2 139 0 253 3 253 4
0 48 -37 99 -83 136 -125 323 -282 591 -497 132 -106 244 -199 248 -206 4 -8
15 -14 23 -14 16 0 304 -239 304 -252 0 -4 -22 -19 -49 -32 -38 -20 -54 -36
-71 -71 -19 -38 -21 -51 -11 -71 6 -14 11 -35 11 -48 0 -26 37 -56 68 -56 10
0 23 -5 29 -11 8 -8 20 -8 46 0 24 8 42 9 61 1 42 -16 73 -12 114 14 20 12 48
26 62 31 32 9 79 53 91 84 6 16 6 36 -3 60 -6 20 -12 43 -13 53 -4 44 -65 94
-136 111 -30 7 -29 7 -108 247 -28 85 -50 164 -50 175 1 11 -7 40 -16 65 -9
25 -36 113 -60 195 -94 324 -219 705 -297 902 -74 191 -144 265 -299 317 -93
31 -126 35 -274 36 l-120 1 -38 50 -37 49 17 63 c15 52 18 95 15 267 -2 159
-5 208 -16 219 -15 14 -139 26 -166 14z m144 -19 c9 -3 16 -18 17 -33 0 -14 2
-39 4 -56 11 -104 6 -297 -10 -370 -20 -93 -22 -98 -44 -92 -9 2 -23 -3 -31
-11 -12 -14 -15 -12 -23 14 -21 70 -55 150 -133 311 -46 95 -84 175 -84 177 0
3 15 2 33 -1 28 -4 40 0 68 24 19 17 48 35 64 41 29 11 106 9 139 -4z m-235
-236 c88 -181 121 -258 134 -318 8 -35 -35 -69 -61 -48 -15 12 -16 11 -4 -4
18 -22 -2 -33 -27 -16 -11 8 -68 72 -127 143 -59 72 -136 163 -172 203 -51 58
-62 76 -51 83 8 5 17 9 20 9 4 0 42 32 84 70 42 39 85 70 94 70 11 0 44 -58
110 -192z m-149 -188 c76 -91 136 -167 134 -169 -2 -2 -15 4 -30 13 -14 10
-28 15 -31 12 -3 -2 12 -14 34 -25 59 -31 88 -57 74 -65 -7 -4 -19 -5 -28 -2
-13 5 -14 4 -3 -9 21 -25 -10 -28 -75 -5 -88 30 -364 182 -418 230 -5 4 0 25
11 46 11 22 28 58 38 82 9 23 35 59 57 78 l39 36 30 -29 c17 -15 93 -102 168
-193z m-167 -147 c121 -71 168 -93 245 -118 28 -10 52 -21 52 -25 0 -4 -8 -14
-18 -23 -22 -20 -119 -16 -220 9 -110 27 -271 94 -277 115 -4 11 7 43 26 79
l32 60 26 -17 c14 -9 75 -45 134 -80z m561 -2 c4 -5 0 -12 -6 -14 -7 -3 -4 -6
7 -6 12 -1 28 -14 38 -31 18 -30 18 -30 -8 -40 -42 -16 -131 -78 -191 -133
-42 -38 -58 -47 -67 -38 -9 9 6 28 62 82 41 40 66 67 55 61 -10 -6 -44 -36
-73 -66 -52 -52 -56 -55 -73 -39 -10 9 -18 23 -18 32 0 36 107 136 195 184 33
18 71 22 79 8z m420 -107 c144 -38 232 -107 291 -228 45 -92 172 -452 258
-731 80 -260 137 -457 137 -473 0 -12 -11 -24 -30 -32 -17 -7 -29 -15 -26 -17
2 -2 18 3 35 11 36 19 41 20 41 3 0 -7 -24 -24 -52 -39 -59 -29 -197 -125
-243 -169 -34 -32 -45 -36 -45 -16 0 6 23 34 52 61 29 27 44 43 33 35 -11 -7
-36 -28 -57 -47 -24 -23 -41 -32 -50 -26 -25 15 -562 451 -678 550 -63 55
-147 130 -187 168 l-73 69 0 151 c0 161 -12 228 -52 293 -17 29 -18 39 -8 90
19 96 51 191 71 209 15 13 19 14 19 3 0 -11 2 -11 8 -1 8 12 34 -75 70 -235 9
-40 19 -73 23 -73 9 0 -6 77 -35 173 -14 45 -28 105 -31 132 -6 44 -4 52 15
63 19 12 25 11 42 -5 21 -18 21 -18 8 6 -11 21 -10 23 4 18 34 -14 50 -17 29
-6 -13 7 -23 16 -23 20 0 12 36 29 61 29 41 0 183 -48 291 -100 59 -27 115
-50 125 -50 10 0 -7 11 -37 24 -30 13 -90 40 -134 60 -43 20 -106 44 -140 54
-61 17 -61 17 -26 23 35 6 35 6 -10 9 l-45 3 35 8 c53 12 267 2 334 -17z
m-654 -290 c-21 -100 -20 -97 -35 -84 -8 7 -15 18 -15 24 0 17 50 119 56 114
2 -3 0 -27 -6 -54z m-300 -862 c0 -181 -3 -221 -16 -240 -21 -30 -104 -71
-159 -79 -92 -12 -195 71 -237 190 -20 60 -24 166 -5 190 11 14 373 154 405
156 9 1 12 -49 12 -217z m1713 -519 c31 -93 59 -177 63 -188 6 -16 1 -14 -24
9 l-32 30 0 -32 c0 -24 -4 -30 -15 -26 -12 5 -15 -2 -15 -29 0 -50 -19 -62
-56 -34 -82 60 -274 232 -271 242 10 29 249 195 283 195 6 0 37 -75 67 -167z
m106 -249 c14 9 80 -20 108 -46 32 -30 30 -83 -3 -131 -25 -38 -26 -67 -2 -67
18 -1 -33 -39 -52 -40 -8 0 -24 -7 -34 -15 -38 -29 -37 -14 2 33 46 56 62 84
61 109 0 10 -5 4 -10 -12 -5 -17 -34 -60 -65 -95 -46 -54 -60 -64 -82 -62 -15
2 -29 5 -31 8 -2 2 17 22 43 45 49 43 77 86 75 116 0 10 -6 4 -12 -15 -20 -54
-63 -99 -129 -132 -53 -26 -64 -29 -66 -15 -2 9 0 22 5 28 4 7 0 4 -10 -6 -14
-16 -23 -18 -50 -11 -33 10 -51 44 -22 44 25 0 75 29 128 74 55 46 77 81 77
123 0 15 4 34 8 41 12 17 48 -23 66 -73 8 -22 15 -35 15 -28 2 25 -22 69 -59
110 -49 53 -52 73 -5 38 19 -15 39 -24 44 -21z m-94 -14 c20 -38 19 -79 -3
-112 -31 -48 -144 -128 -180 -128 -4 0 -16 14 -26 30 -22 38 -9 60 36 60 77 0
138 54 146 130 2 27 6 50 8 50 2 0 10 -13 19 -30z m-50 -70 c-20 -39 -54 -60
-106 -67 -36 -5 -41 -4 -37 13 4 21 102 82 136 83 22 1 22 0 7 -29z m295 -93
c0 -37 -15 -57 -42 -57 -23 0 -23 3 5 50 27 49 37 50 37 7z"/>
<path d="M8894 8256 c-3 -8 -4 -21 -1 -28 3 -7 6 -3 6 10 1 23 15 30 24 12 3
-6 4 -5 3 2 -4 18 -25 21 -32 4z"/>
<path d="M8881 8184 c0 -11 3 -14 6 -6 3 7 2 16 -1 19 -3 4 -6 -2 -5 -13z"/>
<path d="M8881 8144 c0 -11 3 -14 6 -6 3 7 2 16 -1 19 -3 4 -6 -2 -5 -13z"/>
<path d="M8881 8104 c0 -11 3 -14 6 -6 3 7 2 16 -1 19 -3 4 -6 -2 -5 -13z"/>
<path d="M8654 8186 c-3 -8 -4 -23 -1 -33 3 -12 5 -8 6 10 0 15 4 27 8 27 4 0
21 -12 37 -27 l31 -28 -29 33 c-33 35 -44 39 -52 18z"/>
<path d="M8751 8090 c14 -31 19 -36 19 -24 0 6 -7 19 -16 30 -14 18 -14 18 -3
-6z"/>
<path d="M8690 8064 c0 -6 7 -19 16 -30 14 -18 14 -18 3 6 -14 31 -19 36 -19
24z"/>
<path d="M8770 8045 c0 -5 5 -17 10 -25 5 -8 10 -10 10 -5 0 6 -5 17 -10 25
-5 8 -10 11 -10 5z"/>
<path d="M8729 7992 c6 -12 16 -24 22 -28 8 -4 8 -1 0 14 -6 12 -16 24 -22 28
-8 4 -8 1 0 -14z"/>
<path d="M8790 7995 c0 -5 5 -17 10 -25 5 -8 10 -10 10 -5 0 6 -5 17 -10 25
-5 8 -10 11 -10 5z"/>
<path d="M8500 8002 c0 -13 31 -37 70 -56 39 -19 20 -2 -32 28 l-33 20 30 7
30 7 -32 1 c-18 0 -33 -3 -33 -7z"/>
<path d="M8657 7899 c7 -7 15 -10 18 -7 3 3 -2 9 -12 12 -14 6 -15 5 -6 -5z"/>
<path d="M8864 7924 c-18 -14 -18 -14 6 -3 31 14 36 19 24 19 -6 0 -19 -7 -30
-16z"/>
<path d="M8803 7884 l-28 -26 33 22 c29 20 39 30 28 30 -3 0 -18 -12 -33 -26z"/>
<path d="M9153 7853 c9 -2 25 -2 35 0 9 3 1 5 -18 5 -19 0 -27 -2 -17 -5z"/>
<path d="M9228 7843 c6 -2 18 -2 25 0 6 3 1 5 -13 5 -14 0 -19 -2 -12 -5z"/>
<path d="M9310 7826 c0 -2 7 -7 16 -10 8 -3 12 -2 9 4 -6 10 -25 14 -25 6z"/>
<path d="M8964 7781 c3 -5 16 -11 28 -14 22 -6 22 -5 4 8 -22 17 -40 20 -32 6z"/>
<path d="M9414 7762 c30 -39 32 -48 10 -56 -9 -4 -15 -9 -12 -11 9 -9 38 7 38
21 0 7 -14 28 -31 46 l-31 33 26 -33z"/>
<path d="M8920 7731 c0 -5 5 -13 10 -16 6 -3 10 -2 10 4 0 5 -4 13 -10 16 -5
3 -10 2 -10 -4z"/>
<path d="M9065 7733 c6 -5 33 -26 60 -48 41 -32 45 -33 23 -9 -15 16 -42 38
-60 48 -18 10 -28 15 -23 9z"/>
<path d="M8792 7685 c0 -16 2 -22 5 -12 2 9 2 23 0 30 -3 6 -5 -1 -5 -18z"/>
<path d="M8950 7674 c0 -6 7 -19 16 -30 14 -18 14 -18 3 6 -14 31 -19 36 -19
24z"/>
<path d="M8781 7634 c0 -11 3 -14 6 -6 3 7 2 16 -1 19 -3 4 -6 -2 -5 -13z"/>
<path d="M9181 7620 c14 -31 19 -36 19 -24 0 6 -7 19 -16 30 -14 18 -14 18 -3
-6z"/>
<path d="M8988 7605 c6 -11 27 -36 48 -55 36 -33 36 -33 -6 15 -24 28 -46 52
-48 55 -3 3 0 -4 6 -15z"/>
<path d="M8773 7535 c0 -38 2 -53 4 -32 2 20 2 52 0 70 -2 17 -4 1 -4 -38z"/>
<path d="M9200 7554 c0 -14 -5 -35 -11 -47 -10 -21 -10 -21 5 -3 15 18 23 76
11 76 -3 0 -5 -12 -5 -26z"/>
<path d="M9086 7510 c5 -5 25 -12 44 -15 36 -5 29 -1 -25 16 -20 6 -26 6 -19
-1z"/>
<path d="M8781 7434 c0 -11 3 -14 6 -6 3 7 2 16 -1 19 -3 4 -6 -2 -5 -13z"/>
<path d="M8790 7404 c0 -6 7 -19 16 -30 14 -18 14 -18 3 6 -14 31 -19 36 -19
24z"/>
<path d="M8896 7401 c-4 -7 -5 -15 -2 -18 9 -9 19 4 14 18 -4 11 -6 11 -12 0z"/>
<path d="M8888 7352 c-7 -24 -36 -29 -58 -9 -12 10 -12 9 -1 -5 26 -35 82 -15
69 24 -3 7 -7 2 -10 -10z"/>
<path d="M9954 6364 c-18 -14 -18 -15 4 -4 12 6 22 13 22 15 0 8 -5 6 -26 -11z"/>
<path d="M9869 6309 l-24 -20 28 17 c15 9 27 18 27 20 0 8 -8 4 -31 -17z"/>
<path d="M10263 5901 c20 -25 37 -55 37 -68 0 -13 5 -23 10 -23 13 0 13 4 -4
43 -7 18 -28 46 -47 62 -33 30 -33 30 4 -14z"/>
<path d="M10170 5909 c0 -4 7 -22 15 -40 8 -19 14 -27 14 -19 0 14 -28 72 -29
59z"/>
<path d="M10160 5737 l-23 -32 29 27 c15 15 26 30 23 33 -3 2 -16 -10 -29 -28z"/>
<path d="M10085 5690 c-3 -6 1 -7 9 -4 18 7 21 14 7 14 -6 0 -13 -4 -16 -10z"/>
<path d="M3833 8295 c-215 -39 -389 -131 -549 -290 -104 -104 -163 -189 -221
-320 -168 -382 -104 -893 152 -1212 302 -377 811 -469 1231 -222 158 93 297
252 374 428 28 65 30 75 17 88 -13 14 -23 7 -89 -58 -224 -222 -540 -279 -818
-148 -71 34 -99 55 -175 132 -78 79 -98 107 -143 197 -122 247 -151 561 -77
846 80 305 262 502 483 521 88 7 151 -8 218 -52 90 -59 140 -160 151 -306 15
-199 -89 -353 -253 -376 l-46 -6 6 -36 c8 -54 63 -156 99 -187 113 -95 316
-108 452 -28 127 74 206 219 205 377 -2 299 -178 518 -495 618 -141 45 -377
60 -522 34z"/>
<path d="M5475 7624 c-96 -23 -221 -90 -285 -153 -107 -105 -147 -238 -98
-330 36 -69 66 -86 151 -86 54 0 82 5 112 21 80 42 100 133 49 222 -15 26 -36
63 -47 82 -49 87 35 163 178 163 185 -1 265 -102 265 -332 0 -119 -9 -146 -58
-174 -18 -11 -182 -75 -364 -142 -182 -68 -335 -128 -340 -133 -31 -31 -27
-176 7 -272 34 -95 119 -196 202 -238 84 -43 202 -57 280 -32 60 19 172 78
240 126 34 24 64 41 66 37 3 -5 8 -22 11 -39 9 -41 62 -103 102 -120 40 -17
124 -18 179 -3 22 6 86 33 143 59 l102 49 0 39 0 40 -52 -14 c-76 -20 -101
-18 -129 12 l-24 26 -5 441 c-5 430 -6 443 -28 499 -67 168 -259 269 -505 267
-51 0 -119 -7 -152 -15z m325 -905 c0 -246 -2 -252 -89 -295 -81 -40 -154 -40
-213 1 -50 36 -103 110 -119 168 -17 62 -16 164 2 182 14 15 380 153 407 154
9 1 12 -48 12 -210z"/>
<path d="M6822 7625 c-140 -39 -264 -131 -312 -231 -34 -72 -39 -190 -11 -283
41 -135 120 -202 356 -306 192 -83 251 -119 286 -174 53 -82 48 -198 -12 -265
-66 -76 -201 -87 -323 -27 -125 61 -189 163 -252 399 -2 8 -23 12 -59 12 l-56
0 8 -52 c4 -29 8 -124 8 -210 l0 -157 68 -31 c385 -172 777 -105 899 155 41
88 51 158 38 255 -14 104 -41 163 -104 225 -70 68 -141 108 -308 171 -172 66
-221 93 -254 143 -30 46 -42 132 -25 183 17 53 74 104 129 118 55 13 131 1
190 -29 79 -40 166 -165 203 -288 12 -42 13 -43 57 -43 l44 0 -6 33 c-15 81
-25 232 -19 287 l6 60 -33 0 c-18 0 -74 14 -124 32 -81 29 -105 32 -216 35
-87 2 -141 -2 -178 -12z"/>
<path d="M1170 6405 c0 -21 7 -26 45 -36 57 -15 90 -53 105 -122 7 -37 10
-327 8 -952 l-3 -900 -22 -41 c-22 -42 -71 -74 -112 -74 -16 0 -21 -6 -21 -25
l0 -25 425 0 425 0 0 25 c0 19 -5 25 -21 25 -41 0 -90 32 -112 74 -21 38 -22
56 -25 286 -5 350 18 442 143 566 104 105 214 148 380 148 92 0 120 -4 169
-23 68 -27 131 -85 141 -131 6 -28 10 -31 33 -25 125 30 209 133 220 270 17
219 -183 375 -444 345 -98 -11 -148 -26 -237 -72 -92 -48 -160 -107 -229 -197
-53 -70 -125 -210 -155 -301 -18 -55 -18 -50 -21 540 -1 327 0 601 3 608 4 12
68 13 353 10 321 -4 352 -6 412 -26 121 -40 207 -120 298 -279 40 -70 51 -83
73 -83 22 0 25 4 22 28 -5 43 -43 400 -43 406 0 3 -407 6 -905 6 l-905 0 0
-25z"/>
<path d="M6120 6018 c-59 -230 -189 -367 -397 -415 l-73 -17 0 -38 0 -37 98
-3 97 -3 5 -530 c6 -611 6 -611 90 -696 106 -106 272 -109 474 -7 73 36 186
115 186 129 0 22 -32 70 -43 65 -154 -66 -160 -68 -218 -64 -39 3 -66 11 -80
24 -48 43 -49 51 -49 583 l0 501 166 2 167 3 12 43 13 42 -179 0 -179 0 0 230
0 230 -40 0 c-38 0 -40 -1 -50 -42z"/>
<path d="M3435 5619 c-49 -16 -166 -42 -260 -58 -168 -27 -170 -28 -173 -54
-3 -23 1 -27 40 -37 83 -21 106 -31 124 -51 18 -20 19 -49 22 -515 3 -579 8
-549 -90 -593 -35 -16 -71 -31 -80 -35 -11 -3 -18 -15 -18 -31 l0 -25 381 0
380 0 -3 27 c-3 23 -12 29 -75 50 -40 14 -86 37 -103 53 l-30 28 0 376 c0 234
4 395 11 428 20 99 74 164 151 182 22 5 38 -4 106 -63 44 -38 97 -74 117 -81
88 -29 175 -4 238 70 54 63 61 134 23 215 -38 81 -103 125 -184 125 -64 0
-112 -23 -296 -140 -96 -60 -177 -110 -181 -110 -13 0 2 173 18 211 11 27 12
40 4 48 -14 14 -17 14 -122 -20z"/>
<path d="M8616 5619 c-49 -16 -166 -42 -260 -58 -169 -27 -171 -28 -174 -54
-3 -23 1 -27 40 -37 83 -21 106 -31 124 -51 18 -20 19 -47 19 -530 l0 -509
-30 -30 c-17 -17 -58 -41 -90 -55 -49 -19 -61 -29 -63 -49 l-3 -26 366 0 366
0 -3 27 c-3 23 -12 30 -63 50 -33 12 -73 37 -88 54 l-28 30 3 402 c3 397 3
403 26 445 59 111 149 158 282 149 153 -10 230 -84 250 -240 13 -100 13 -664
-1 -725 -12 -60 -36 -84 -115 -116 -48 -20 -60 -29 -62 -50 l-3 -26 366 0 366
0 -3 26 c-2 21 -15 30 -76 56 -46 19 -79 40 -90 56 -15 23 -18 77 -22 502 l-5
476 -38 77 c-71 143 -199 215 -392 219 -70 2 -75 0 -171 -54 -114 -64 -317
-168 -329 -168 -12 0 2 129 19 176 10 31 11 45 3 53 -14 14 -17 14 -121 -20z"/>
<path d="M10385 5634 c-78 -29 -199 -55 -354 -78 -154 -22 -156 -23 -159 -49
-3 -23 1 -27 40 -37 87 -22 108 -32 128 -57 19 -25 20 -40 20 -520 0 -536 1
-531 -56 -568 -14 -9 -49 -25 -78 -34 -42 -15 -52 -22 -54 -44 l-3 -27 371 0
371 0 -3 26 c-3 22 -13 30 -66 49 -71 26 -95 44 -112 84 -8 21 -10 181 -8 587
3 489 6 565 21 608 12 36 13 53 5 63 -13 16 -12 16 -63 -3z"/>
<path d="M4830 5630 c-266 -33 -481 -213 -483 -404 -1 -121 56 -181 173 -181
108 1 172 47 186 132 7 45 -9 90 -55 156 -41 60 -47 89 -25 127 56 93 262 104
360 18 65 -57 78 -95 82 -254 4 -136 3 -141 -19 -168 -19 -21 -102 -56 -379
-161 -200 -76 -360 -141 -367 -151 -18 -24 -16 -146 2 -219 34 -129 118 -234
232 -288 62 -29 77 -32 163 -32 91 0 98 2 184 43 49 23 118 63 153 88 36 25
65 44 67 42 1 -1 8 -22 15 -46 15 -55 69 -108 123 -123 77 -20 169 1 318 74
83 41 85 43 88 81 3 36 2 38 -20 31 -13 -4 -53 -9 -90 -12 -108 -8 -102 -34
-108 492 -5 431 -6 441 -28 498 -69 171 -327 287 -572 257z m240 -920 c0 -141
-4 -218 -12 -235 -8 -17 -34 -38 -72 -57 -70 -35 -142 -41 -193 -15 -46 24
-110 102 -133 163 -25 68 -28 185 -5 204 18 15 372 147 398 149 16 1 17 -15
17 -209z"/>
<path d="M7202 5610 c-93 -25 -147 -49 -219 -98 -194 -132 -305 -378 -290
-647 7 -125 26 -197 78 -302 151 -301 516 -439 869 -327 209 65 376 253 436
489 25 95 25 304 1 395 -60 226 -227 407 -441 476 -113 37 -325 44 -434 14z
m273 -86 c161 -56 247 -311 232 -694 -10 -246 -47 -371 -137 -461 -68 -69
-131 -89 -219 -70 -159 34 -235 180 -262 497 -18 217 9 457 64 578 62 134 190
194 322 150z"/>
</g>
</svg>
